<!-- Generated by IcoMoon.io -->
<svg version="1.1" xmlns="http://www.w3.org/2000/svg" width="45" height="32" viewBox="0 0 45 32">
<title>headphones</title>
<path d="M39.078 19.005c0-0.445 0.019-1.032 0.061-1.761 0.040-0.727 0.061-1.214 0.061-1.456 0-0.445-0.030-1.012-0.091-1.701-0.061-0.687-0.182-1.447-0.364-2.277s-0.446-1.69-0.788-2.579c-0.345-0.89-0.799-1.782-1.364-2.673-0.566-0.89-1.274-1.731-2.123-2.521-0.849-0.788-1.861-1.487-3.032-2.095-1.173-0.606-2.508-1.082-4.003-1.426-1.498-0.345-3.175-0.517-5.034-0.517-1.861 0-3.539 0.172-5.034 0.517-1.497 0.344-2.831 0.82-4.003 1.426-1.173 0.608-2.184 1.307-3.032 2.095-0.849 0.79-1.558 1.631-2.123 2.521-0.567 0.89-1.021 1.782-1.364 2.673-0.345 0.89-0.607 1.75-0.788 2.579s-0.303 1.589-0.364 2.277c-0.061 0.689-0.091 1.256-0.091 1.701v3.217l0 12.994h6.065c0.282 0 0.545-0.061 0.788-0.182 0.201-0.081 0.383-0.223 0.546-0.426 0.161-0.203 0.243-0.508 0.243-0.915l0-9.197c0-0.284-0.060-0.526-0.182-0.731-0.081-0.202-0.233-0.385-0.455-0.547-0.223-0.163-0.536-0.244-0.94-0.244h-3.033v-4.364c0-0.807 0.131-1.888 0.394-3.242 0.262-1.352 0.819-2.677 1.668-3.97 0.444-0.646 0.989-1.282 1.638-1.909 0.646-0.625 1.435-1.181 2.365-1.667 0.929-0.485 2.021-0.867 3.275-1.151 1.253-0.282 2.709-0.424 4.367-0.424 1.657 0 3.112 0.142 4.367 0.424 1.253 0.284 2.345 0.666 3.276 1.151 0.929 0.485 1.717 1.042 2.365 1.667 0.646 0.627 1.192 1.263 1.637 1.909 0.849 1.293 1.405 2.618 1.668 3.97 0.262 1.354 0.394 2.435 0.394 3.242v4.364h-3.072c-0.412 0-0.719 0.081-0.923 0.244s-0.349 0.345-0.431 0.547c-0.123 0.205-0.184 0.447-0.184 0.731v9.197c0 0.407 0.070 0.712 0.214 0.915 0.142 0.203 0.314 0.345 0.519 0.426 0.203 0.121 0.468 0.182 0.794 0.182h6.114v-12.995z"></path>
</svg>
