<!-- Generated by IcoMoon.io -->
<svg version="1.1" xmlns="http://www.w3.org/2000/svg" width="45" height="32" viewBox="0 0 45 32">
<title>menu</title>
<path d="M39.218 13.299h-33.189c-1.527 0-2.766 1.239-2.766 2.765s1.239 2.765 2.766 2.765h33.189c1.529 0 2.766-1.239 2.766-2.765s-1.236-2.765-2.766-2.765zM6.030 7.77h33.189c1.529 0 2.766-1.239 2.766-2.765s-1.236-2.765-2.766-2.765h-33.189c-1.527 0-2.766 1.239-2.766 2.765s1.239 2.765 2.766 2.765zM39.218 24.358h-33.189c-1.527 0-2.766 1.236-2.766 2.765s1.239 2.765 2.766 2.765h33.189c1.529 0 2.766-1.236 2.766-2.765s-1.236-2.765-2.766-2.765z"></path>
</svg>
