<!-- Generated by IcoMoon.io -->
<svg version="1.1" xmlns="http://www.w3.org/2000/svg" width="45" height="32" viewBox="0 0 45 32">
<title>search</title>
<path d="M15.776 20.819c-1.032-0.466-1.926-1.104-2.692-1.897-0.774-0.793-1.385-1.724-1.832-2.793-0.456-1.060-0.679-2.207-0.679-3.439 0-1.224 0.223-2.371 0.679-3.44 0.447-1.060 1.058-1.991 1.832-2.785 0.765-0.793 1.659-1.431 2.692-1.896s2.141-0.707 3.328-0.707c1.187 0 2.287 0.242 3.32 0.707s1.926 1.103 2.7 1.896c0.765 0.794 1.376 1.724 1.832 2.785 0.447 1.069 0.68 2.216 0.68 3.44 0 1.233-0.232 2.379-0.68 3.439-0.456 1.069-1.066 2-1.832 2.793-0.774 0.793-1.669 1.431-2.7 1.897s-2.133 0.698-3.32 0.698c-1.187 0-2.296-0.233-3.328-0.698zM29.776 19.776l-0.258-0.216c0.619-1.026 1.101-2.112 1.445-3.267 0.344-1.147 0.525-2.362 0.525-3.638 0-1.741-0.327-3.379-0.963-4.923-0.637-1.534-1.523-2.879-2.649-4.034s-2.442-2.061-3.948-2.716c-1.505-0.655-3.105-0.983-4.799-0.983-1.737 0-3.354 0.336-4.859 0.991s-2.812 1.56-3.921 2.716c-1.11 1.155-1.995 2.509-2.649 4.052-0.654 1.551-0.981 3.19-0.981 4.931 0 1.775 0.327 3.431 0.981 4.957 0.653 1.534 1.539 2.87 2.649 4.026s2.416 2.069 3.921 2.724c1.505 0.655 3.122 0.982 4.859 0.982 1.238 0 2.425-0.172 3.552-0.525s2.193-0.854 3.199-1.492l0.155 0.216 7.568 7.638c0.525 0.526 1.161 0.785 1.901 0.785 0.705 0 1.316-0.259 1.849-0.793 0.524-0.5 0.791-1.121 0.791-1.862s-0.267-1.379-0.791-1.914l-7.577-7.655z"></path>
</svg>
