<!-- Generated by IcoMoon.io -->
<svg version="1.1" xmlns="http://www.w3.org/2000/svg" width="45" height="32" viewBox="0 0 45 32">
<title>twitter</title>
<path d="M35.835 5.285c-0.028-0.015-0.056-0.047-0.084-0.075-1.675-1.53-3.644-2.262-5.908-2.174l-0.069-0.157c0.014-0.015 0.027-0.015 0.042-0.015 2.053-0.46 3.268-0.933 3.631-1.446 0.126-0.415-0.027-0.644-0.475-0.701-1.034 0.129-1.983 0.342-2.834 0.673 1.076-0.673 1.494-1.145 1.257-1.389-1.062 0.029-2.207 0.56-3.409 1.605 0.447-0.746 0.615-1.147 0.504-1.218-0.572 0.387-1.076 0.803-1.509 1.245-0.907 0.987-1.634 1.905-2.193 2.735l-0.028 0.072c-1.439 2.276-2.444 4.566-3.045 6.9l-0.223 0.173-0.042 0.042c-0.866-1.060-1.899-1.946-3.142-2.665-1.467-0.929-3.185-1.817-5.168-2.675-2.165-1.087-4.357-1.99-6.578-2.691-0.013 2.42 1.201 4.351 3.618 5.755v0.043c-0.852-0.016-1.676 0.114-2.472 0.358 0.153 2.247 1.788 3.793 4.888 4.651l-0.015 0.043c-1.214-0.069-2.22 0.346-3.002 1.204 1.020 1.948 2.82 2.877 5.433 2.805-0.518 0.259-0.922 0.543-1.187 0.86-0.475 0.486-0.629 1.061-0.475 1.717 0.558 0.988 1.563 1.444 3.044 1.375l0.083 0.1-0.042 0.043c-2.556 2.577-5.642 3.736-9.259 3.493l-0.056 0.029c-2.206-0.016-4.566-1.045-7.122-3.107 2.57 3.606 5.977 6.211 10.195 7.845 4.831 1.56 9.664 1.675 14.481 0.342h0.084c4.679-1.318 8.644-4.024 11.912-8.117 1.508-2.147 2.458-4.193 2.836-6.156 2.444 0.086 4.203-0.601 5.292-2.060l-0.027-0.044c-0.811 0.285-2.403 0.202-4.764-0.271v-0.259c0-0.012 0-0.012 0.015 0 2.584-0.285 4.106-1.1 4.595-2.449-1.802 0.689-3.576 0.701-5.336 0.059-0.32-2.377-1.465-4.539-3.448-6.498z"></path>
</svg>
