<!-- Generated by IcoMoon.io -->
<svg version="1.1" xmlns="http://www.w3.org/2000/svg" width="45" height="32" viewBox="0 0 45 32">
<title>user</title>
<path d="M31.939 23.894c-4.423-1.565-5.916-2.916-5.916-5.831 0-1.707 1.418-1.138 2.015-4.338 0.299-1.28 1.477 0 1.693-2.987 0-1.208-0.649-1.493-0.649-1.493s0.361-1.778 0.505-3.129c0.144-1.706-1.027-6.116-7.261-6.116-6.047 0-7.186 4.41-7.044 6.116 0.143 1.351 0.499 3.129 0.499 3.129s-0.712 0.285-0.712 1.493c0.285 2.987 1.423 1.707 1.708 2.987 0.57 3.2 1.923 2.631 1.923 4.338 0 2.915-1.424 4.266-5.838 5.831-4.342 1.635-7.261 3.271-7.261 4.337l-0 3.769h33.6v-3.769c0-1.066-2.848-2.702-7.261-4.337z"></path>
</svg>
