<svg xmlns="http://www.w3.org/2000/svg" viewBox="0 0 30 30"><path d="M16,3A13.47,13.47,0,0,0,2.41,16.33,13.37,13.37,0,0,0,11.7,29c.68.13.93-.28.93-.64s0-1.16,0-2.27C8.83,26.9,8,24.3,8,24.3a3.56,3.56,0,0,0-1.51-2c-1.23-.82.1-.81.1-.81A2.87,2.87,0,0,1,8.7,22.91a2.93,2.93,0,0,0,4,1.11,2.85,2.85,0,0,1,.86-1.79c-3-.33-6.19-1.48-6.19-6.6a5.07,5.07,0,0,1,1.4-3.58,4.64,4.64,0,0,1,.11-3.54S10,8.16,12.58,9.88A13.79,13.79,0,0,1,16,9.43a13.73,13.73,0,0,1,3.4.45C22,8.16,23.1,8.51,23.1,8.51a4.86,4.86,0,0,1,.14,3.54,5.15,5.15,0,0,1,1.39,3.58c0,5.14-3.18,6.27-6.2,6.59a3.2,3.2,0,0,1,.92,2.48c0,1.78,0,3.22,0,3.65s.24.77.93.64a13.35,13.35,0,0,0,9.33-12.66A13.47,13.47,0,0,0,16,3Z" /></svg>