<svg xmlns="http://www.w3.org/2000/svg" viewBox="0 0 32 32"><title>headphones</title><path d="M29.69,18.47c0-.37,0-.85,0-1.45s.05-1,.05-1.19a13.37,13.37,0,0,0-.08-1.4,14.32,14.32,0,0,0-.94-4,12.61,12.61,0,0,0-1.12-2.19,10.75,10.75,0,0,0-1.74-2.07,11.3,11.3,0,0,0-2.49-1.72,13.69,13.69,0,0,0-3.29-1.17A18.61,18.61,0,0,0,16,2.87a18.55,18.55,0,0,0-4.13.42A13.69,13.69,0,0,0,8.58,4.46,11.3,11.3,0,0,0,6.09,6.18,10.75,10.75,0,0,0,4.35,8.25a12,12,0,0,0-1.12,2.19,15,15,0,0,0-.65,2.12,16.89,16.89,0,0,0-.29,1.87,13.37,13.37,0,0,0-.08,1.4v13.3h5A1.44,1.44,0,0,0,7.84,29a1,1,0,0,0,.44-.35,1.12,1.12,0,0,0,.2-.75V20.33a1.16,1.16,0,0,0-.15-.6A1,1,0,0,0,8,19.29a1.24,1.24,0,0,0-.77-.21H4.7V15.5A15.22,15.22,0,0,1,5,12.84,9.1,9.1,0,0,1,6.39,9.58,10,10,0,0,1,7.74,8,8,8,0,0,1,9.68,6.65a11.28,11.28,0,0,1,2.69-1A16.44,16.44,0,0,1,16,5.35a16.6,16.6,0,0,1,3.59.35,11.35,11.35,0,0,1,2.68,1,8.25,8.25,0,0,1,2,1.37,10.5,10.5,0,0,1,1.34,1.56,9.1,9.1,0,0,1,1.37,3.26,15.22,15.22,0,0,1,.32,2.66v3.58H24.68a1.17,1.17,0,0,0-.76.21,1.2,1.2,0,0,0-.35.44,1.16,1.16,0,0,0-.15.6v7.55a1.34,1.34,0,0,0,.17.75A.9.9,0,0,0,24,29a1.25,1.25,0,0,0,.65.15h5V18.47Z"/></svg>