<svg xmlns="http://www.w3.org/2000/svg" viewBox="0 0 32 32"><title>search</title><path d="M9.92,20a7.52,7.52,0,0,1-3.86-4A7.3,7.3,0,0,1,5.48,13a7.42,7.42,0,0,1,.58-2.94A7.51,7.51,0,0,1,7.62,7.72,7.37,7.37,0,0,1,9.92,6.1a7,7,0,0,1,5.67,0A7.53,7.53,0,0,1,17.9,7.72a7.87,7.87,0,0,1,1.56,2.37A7.59,7.59,0,0,1,20,13,7.47,7.47,0,0,1,19.46,16a7.85,7.85,0,0,1-1.56,2.39A7.7,7.7,0,0,1,15.59,20a7.11,7.11,0,0,1-5.67,0Zm12-.89-.22-.19a12,12,0,0,0,1.23-2.79,11,11,0,0,0-.38-7.3A10.71,10.71,0,0,0,16.88,3a10.16,10.16,0,0,0-4.1-.84A10.47,10.47,0,0,0,8.63,3,10.33,10.33,0,0,0,5.29,5.36,11.14,11.14,0,0,0,3,8.82,10.66,10.66,0,0,0,2.19,13,10.61,10.61,0,0,0,3,17.26a11,11,0,0,0,2.26,3.43,10.22,10.22,0,0,0,7.49,3.17,10.1,10.1,0,0,0,3-.45,11.68,11.68,0,0,0,2.73-1.27l.13.18,6.46,6.52a2.2,2.2,0,0,0,1.62.67A2.32,2.32,0,0,0,29,27.24a2.25,2.25,0,0,0-.68-1.63Z"/></svg>