<svg xmlns="http://www.w3.org/2000/svg" viewBox="0 0 30 30"><path class="a" d="M18.89,19.19" transform="translate(-3.72 -6.02)"/><path d="M25.76,11a10,10,0,0,0,2.52-2.62h0a10.47,10.47,0,0,1-2.9.8A5.05,5.05,0,0,0,27.6,6.39a10.16,10.16,0,0,1-3.2,1.22,5,5,0,0,0-8.71,3.45,5.4,5.4,0,0,0,.12,1.15A14.3,14.3,0,0,1,5.43,6.94a5,5,0,0,0-.69,2.54A5,5,0,0,0,7,13.67a5,5,0,0,1-2.27-.62v0a5.06,5.06,0,0,0,4,5,5.08,5.08,0,0,1-1.32.17,4.31,4.31,0,0,1-1-.09,5.09,5.09,0,0,0,4.71,3.51,10.14,10.14,0,0,1-6.25,2.15,9.44,9.44,0,0,1-1.2-.07A14.15,14.15,0,0,0,11.44,26,14.24,14.24,0,0,0,25.76,11Z" /></svg>