<svg version="1" xmlns="http://www.w3.org/2000/svg" width="1205.333" height="1205.333" viewBox="0 0 904.000000 904.000000"><path d="M0 452v452h904V0H0v452zm395.7-199.3c40.2 27.7 73.5 50.3 74 50.3s36.8-13.9 80.8-31c43.9-17 80-30.8 80.1-30.7 0 .1-9.7 38.4-21.7 85.1l-21.8 84.8 57 68.9c31.4 37.8 57.1 69.2 57.2 69.6.2.6-99.1 3.1-168.4 4.2l-5.7.1-44.8 73.9c-24.7 40.7-45.2 73.7-45.5 73.3-.3-.4-14.9-38.1-32.4-83.7-17.5-45.7-31.8-83.1-31.9-83.2 0 0-37.7-10.5-83.6-23.2-45.9-12.7-84.3-23.4-85.3-23.9-1.3-.5 12.9-12.3 64.3-53.2 36.4-28.9 66.7-53 67.4-53.5 1.1-.8 1-4.8-.5-22-1-11.6-2.5-29.1-3.4-39-.8-9.9-3.3-38.7-5.5-64-2.2-25.3-4.2-47.7-4.5-49.8-.3-2.2-.2-3.7.3-3.5.5.1 33.7 22.9 73.9 50.5z"/></svg>